<svg width="50" height="67" viewBox="0 0 50 67" fill="none" xmlns="http://www.w3.org/2000/svg">
<g clip-path="url(#clip0_1_661)">
<path d="M9.858 66.586C8.79847 66.586 7.92435 66.2681 7.79191 65.1821C7.68596 64.4669 5.67285 47.276 28.3468 23.5426C29.8301 22.0062 32.8498 19.3044 36.0814 15.755C36.7436 15.0398 37.8561 14.4571 38.6242 15.0928C39.3659 15.7285 38.9421 17.1324 38.2269 18.2714C36.5317 20.9732 32.9028 24.9994 31.4724 26.5092C10.3878 48.574 12.0565 64.4669 12.0565 64.6258C12.189 65.7913 11.3149 66.4006 10.1229 66.5595C10.0169 66.5595 9.93746 66.5595 9.83151 66.5595L9.858 66.586Z" fill="#FFFEF3"/>
<path d="M18.4647 57.9769C15.3126 57.9769 12.3724 57.2353 9.85599 55.7784C5.3265 53.1561 2.06844 47.8319 1.14135 41.5542C-0.0506185 33.5548 2.51874 25.4758 8.21372 19.3835C15.1801 11.9139 23.3915 9.29152 31.3115 6.77513C35.9999 5.29179 40.8208 3.72898 45.5092 1.18611C46.1184 0.841762 46.8601 0.841762 47.4958 1.15962C48.1315 1.47748 48.5553 2.08671 48.6613 2.7754C48.7937 3.72898 52.0253 26.35 43.4166 41.4483C38.8871 49.3683 31.8942 55.1162 24.2126 57.2088C22.2525 57.7385 20.3189 58.0034 18.4647 58.0034V57.9769ZM44.7145 6.4043C40.6353 8.31145 36.5562 9.60938 32.6094 10.8808C24.8748 13.3442 17.5641 15.6752 11.3393 22.3237C6.57145 27.436 4.39941 34.217 5.37947 40.9185C6.12115 45.9248 8.58455 50.0834 12.0015 52.0436C15.0212 53.7918 18.968 54.1361 23.1001 53.0236C29.5897 51.2754 35.788 46.1367 39.6818 39.3027C45.8006 28.575 45.2708 12.9204 44.7145 6.4043Z" fill="#FFFEF3"/>
</g>
<defs>
<clipPath id="clip0_1_661">
<rect width="48.5" height="65.6644" fill="white" transform="translate(0.851562 0.921875)"/>
</clipPath>
</defs>
</svg>
