<svg width="273" height="56" viewBox="0 0 273 56" fill="none" xmlns="http://www.w3.org/2000/svg">
<path fill-rule="evenodd" clip-rule="evenodd" d="M52.369 17.5387V14.9693C26.805 30.6918 38.2306 31.0286 12.5606 14.8196V54.4097C12.5606 55.1394 11.9681 55.7257 11.2446 55.7257H1.31593C0.586243 55.7257 0 55.1332 0 54.4097V2.04696C0 1.4919 0.449038 1.03662 1.01033 1.03662H13.3651C13.5335 1.03662 13.7206 1.08028 13.889 1.1863C17.1757 2.80782 28.0711 11.2834 32.3494 11.0714C32.5802 11.0527 32.8109 11.0714 33.0479 11.0714C37.2639 11.3021 47.8225 2.77041 51.0219 1.1863C51.1903 1.08028 51.3587 1.03662 51.5458 1.03662H64.0003C64.5117 1.03662 64.9296 1.45448 64.9296 1.96588V54.4097C64.9296 55.1394 64.3371 55.7257 63.6137 55.7257H53.7099C52.9802 55.7257 52.394 55.1332 52.394 54.4097V17.5387H52.3752H52.369Z" fill="#333333"/>
<path fill-rule="evenodd" clip-rule="evenodd" d="M84.9303 48.6219C79.7663 44.0941 76.7727 37.371 76.542 28.3092V2.02805C76.542 1.58525 76.9411 1.08008 77.6396 1.08008H87.3937C88.0922 1.08008 88.4914 1.58525 88.4914 2.02805V28.2843C88.4914 34.2714 89.7325 39.2857 93.3185 42.0236C96.73 44.6554 99.5988 45.4163 106.447 45.4163C113.294 45.4163 116.163 44.6367 119.575 42.0236C123.136 39.2857 124.402 34.2714 124.402 28.2843V2.10912C124.402 1.66632 124.801 1.16115 125.5 1.16115H135.254C135.952 1.16115 136.351 1.66632 136.351 2.10912V27.1679C136.351 36.7973 133.314 43.9008 127.944 48.6219C122.531 53.3618 116.818 55.9126 106.447 55.9126C96.0751 55.9126 90.3437 53.3867 84.9303 48.6219Z" fill="#333333"/>
<path fill-rule="evenodd" clip-rule="evenodd" d="M188.948 30.2671V11.5946H162.161C161.257 11.5946 160.54 10.8587 160.54 9.97312V2.78852C160.54 1.88421 161.276 1.16699 162.161 1.16699H200.429C201.315 1.16699 201.864 1.82184 201.864 2.40808V28.814C201.864 38.5494 199.232 45.0417 194.617 49.1516C189.958 53.2803 183.509 55.9995 174.235 55.9995C165.891 55.9995 159.274 54.1846 154.197 50.9416C149.264 47.7796 145.852 42.4036 144.948 33.0923C144.886 32.5248 145.329 31.8699 146.152 31.7452L155.781 30.3544C156.686 30.2297 157.359 30.8409 157.446 31.4708C157.995 35.9362 159.13 40.2395 161.874 42.7653C164.612 45.2912 168.597 44.998 173.612 44.998C179.3 44.998 182.717 44.9981 185.411 42.1978C188.112 39.4163 188.954 34.9883 188.954 30.2671H188.948Z" fill="#333333"/>
<path fill-rule="evenodd" clip-rule="evenodd" d="M212.221 28.1705C212.221 19.5638 215.295 12.5661 220.546 7.69753C225.804 2.82901 233.358 0 242.515 0C251.671 0 259.207 2.82901 264.441 7.69753C269.656 12.5481 272.724 19.5399 272.724 28.1705C272.724 36.801 269.674 43.6911 264.459 48.464C259.225 53.2547 251.707 56 242.532 56C233.358 56 225.822 53.1889 220.564 48.3802C215.289 43.5715 212.215 36.6575 212.215 28.1705H212.221ZM260.422 28.009C260.422 22.2493 259.291 17.8054 256.217 14.8508C253.167 11.9201 248.555 10.8316 242.497 10.8316C236.438 10.8316 231.844 11.9201 228.776 14.8508C225.702 17.7994 224.572 22.2254 224.572 28.009C224.572 33.7926 225.702 38.8226 228.776 41.7712C231.827 44.7019 236.438 45.7905 242.497 45.7905C248.555 45.7905 253.149 44.7019 256.217 41.7712C259.267 38.8226 260.422 33.7866 260.422 28.009Z" fill="#333333"/>
</svg>
