<svg width="84" height="85" viewBox="0 0 84 85" fill="none" xmlns="http://www.w3.org/2000/svg">
<path fill-rule="evenodd" clip-rule="evenodd" d="M32.6386 16.6796V14.8607C17.1402 24.372 24.0747 24.5993 8.53843 14.7849V36.8767C8.53843 37.3694 8.1595 37.7483 7.66688 37.7483H1.79342C1.30081 37.7483 0.921875 37.3694 0.921875 36.8767V7.54733C0.921875 7.05471 1.30081 6.67578 1.79342 6.67578H8.99315C8.99315 6.67578 9.22051 6.67578 9.2963 6.75157C11.2667 7.73679 17.8981 12.8524 20.4748 12.7387C20.6264 12.7387 20.7401 12.7387 20.8916 12.7387C23.4305 12.8903 29.8345 7.6989 31.767 6.75157C31.8807 6.67578 31.9565 6.67578 32.0702 6.67578H39.2699C39.7625 6.67578 40.1414 7.05471 40.1414 7.54733V36.8767C40.1414 37.3694 39.7625 37.7483 39.2699 37.7483H33.4343C32.9417 37.7483 32.5628 37.3694 32.5628 36.8767V16.6796H32.6386Z" fill="#333333"/>
<path fill-rule="evenodd" clip-rule="evenodd" d="M50.9371 35.4747C47.7919 32.7464 46.0109 28.6539 45.8594 23.1594V7.24418C45.8594 6.97893 46.1246 6.67578 46.5415 6.67578H52.4528C52.8696 6.67578 53.1349 6.97893 53.1349 7.24418V23.1594C53.1349 26.7971 53.8928 29.8286 56.0527 31.4959C58.1368 33.0874 59.842 33.5421 64.0103 33.5421C68.1785 33.5421 69.8837 33.0874 71.9679 31.4959C74.1278 29.8286 74.8857 26.7971 74.8857 23.1594V7.31997C74.8857 7.05471 75.113 6.75157 75.5677 6.75157H81.4791C81.8959 6.75157 82.1612 7.05471 82.1612 7.31997V22.5152C82.1612 28.3508 80.3423 32.6706 77.0835 35.5126C73.7867 38.3925 70.3385 39.9461 64.0482 39.9461C57.7579 39.9461 54.3096 38.3925 51.0129 35.5126" fill="#333333"/>
<path fill-rule="evenodd" clip-rule="evenodd" d="M32.4085 62.3033V50.9732H16.1902C15.6597 50.9732 15.205 50.5185 15.205 49.988V45.6302C15.205 45.0997 15.6597 44.645 16.1902 44.645H39.3809C39.9114 44.645 40.2524 45.0618 40.2524 45.4029V61.3939C40.2524 67.3052 38.6609 71.2082 35.8568 73.7092C33.0527 76.2101 29.1497 77.8775 23.5036 77.8775C18.4638 77.8775 14.4471 76.7785 11.3777 74.8081C8.38417 72.9134 6.30004 69.6167 5.76953 64.0085C5.76953 63.6675 5.99689 63.2506 6.4895 63.1748L12.3251 62.3412C12.8556 62.2654 13.2724 62.6443 13.3482 63.0233C13.6892 65.7516 14.3713 68.3283 16.0386 69.882C17.7059 71.4356 20.0932 71.2461 23.1626 71.2461C26.6109 71.2461 28.695 71.2461 30.3244 69.5409C31.9538 67.8357 32.4464 65.1832 32.4464 62.3033" fill="#333333"/>
<path fill-rule="evenodd" clip-rule="evenodd" d="M44.875 61.2422C44.875 55.7855 46.8076 51.3899 50.1422 48.3206C53.4768 45.2512 58.2513 43.4702 64.0111 43.4702C69.7709 43.4702 74.5455 45.2512 77.8422 48.3206C81.1389 51.3899 83.0715 55.8234 83.0715 61.2422C83.0715 66.6609 81.1389 71.0565 77.8422 74.0501C74.5455 77.0816 69.7709 78.8247 64.0111 78.8247C58.2513 78.8247 53.4389 77.0437 50.1422 74.0122C46.8454 70.9808 44.875 66.623 44.875 61.2422ZM75.3412 61.1285C75.3412 57.4907 74.6212 54.6866 72.6887 52.8299C70.7561 50.9731 67.8383 50.291 64.0111 50.291C60.1839 50.291 57.2661 50.9731 55.3336 52.8299C53.401 54.6866 52.681 57.4907 52.681 61.1285C52.681 64.7663 53.401 67.9493 55.3336 69.8061C57.2661 71.6628 60.1839 72.3449 64.0111 72.3449C67.8383 72.3449 70.7561 71.6628 72.6887 69.8061C74.6212 67.9493 75.3412 64.7663 75.3412 61.1285Z" fill="#333333"/>
</svg>
